# xmcd CD database file
#
# Track frame offsets:
#	150
#	45362
#	48275
#	52749
#	56654
#	61641
#	65630
#	68781
#	72080
#	113039
#	128737
#	196390
#
# Disc length: 3518 seconds
#
# Revision: 0
# Processed by: cddbd v1.5.1PL2 Copyright (c) Steve Scherf et al.
# Submitted via: CDex 1.51
#
DISCID=a10dbc0c
DTITLE=綿本彰 - Yogaではじめる瞑想入門
DYEAR=2006
DGENRE=New Age
TTITLE0=呼吸法
TTITLE1=瞑想-01(ムーラーダーラ)
TTITLE2=瞑想-02(スワディシュターナ)
TTITLE3=瞑想-03(マニプーラ)
TTITLE4=瞑想-04(アナーハタ)
TTITLE5=瞑想-05(ヴィシュッダ)
TTITLE6=瞑想-06(アージュニャー)
TTITLE7=瞑想-07(サハスラーラ)
TTITLE8=瞑想-08(静寂)
TTITLE9=覚醒
TTITLE10=朝の瞑想
TTITLE11=Music Track
EXTD=YEAR: 2006
EXTT0=
EXTT1=
EXTT2=
EXTT3=
EXTT4=
EXTT5=
EXTT6=
EXTT7=
EXTT8=
EXTT9=
EXTT10=
EXTT11=
PLAYORDER=
